<svg id="visual" viewBox="0 0 960 540" width="960" height="540" xmlns="http://www.w3.org/2000/svg" xmlns:xlink="http://www.w3.org/1999/xlink" version="1.1">
<rect width="960" height="540" fill="#393E46"/>
<style type="text/css">
        #a { animation: x .5s ease alternate 14; }

        @keyframes x {
           from { fill: #000; }
             to { fill: #fff; }
        }


<g>
<path id="a" class=".morph"
 d="M390 0L398.2 22.5C406.3 45 422.7 90 413.2 135C403.7 180 368.3 225 370.7 270C373 315 413 360 417.2 405C421.3 450 389.7 495 373.8 517.5L358 540L0 540L0 517.5C0 495 0 450 0 405C0 360 0 315 0 270C0 225 0 180 0 135C0 90 0 45 0 22.5L0 0Z" fill="#222831"></path>
</g>

<path
 d = "M390 0L398.2 22.5C406.3 45 422.7 90 413.2 135C403.7 180 368.3 225 370.7 270C373 315 413 360 417.2 405C421.3 450 389.7 495 373.8 517.5L358 540L0 540L0 517.5C0 495 0 450 0 405C0 360 0 315 0 270C0 225 0 180 0 135C0 90 0 45 0 22.5L0 0Z" fill = "#222831">
</path>


</svg>