<svg id="visual" viewBox="0 0 960 540" width="960" height="540" xmlns="http://www.w3.org/2000/svg" xmlns:xlink="http://www.w3.org/1999/xlink" version="1.1"><rect x="0" y="0" width="960" height="540" fill="#222831"></rect><path d="M450 540L460.3 517.5C470.7 495 491.3 450 484 405C476.7 360 441.3 315 431.7 270C422 225 438 180 444.7 135C451.3 90 448.7 45 447.3 22.5L446 0L960 0L960 22.5C960 45 960 90 960 135C960 180 960 225 960 270C960 315 960 360 960 405C960 450 960 495 960 517.5L960 540Z" fill="#393E46" stroke-linecap="round" stroke-linejoin="miter"></path></svg>