<svg id="visual" viewBox="0 0 450 900" width="450" height="900" xmlns="http://www.w3.org/2000/svg" xmlns:xlink="http://www.w3.org/1999/xlink" version="1.1"><rect x="0" y="0" width="450" height="900" fill="#222831"></rect><path d="M175 900L191.7 887.5C208.3 875 241.7 850 256.2 825C270.7 800 266.3 775 258.7 750C251 725 240 700 242 675C244 650 259 625 268.5 600C278 575 282 550 278 525C274 500 262 475 253.2 450C244.3 425 238.7 400 245.8 375C253 350 273 325 279 300C285 275 277 250 262.7 225C248.3 200 227.7 175 220.3 150C213 125 219 100 226.2 75C233.3 50 241.7 25 245.8 12.5L250 0L450 0L450 12.5C450 25 450 50 450 75C450 100 450 125 450 150C450 175 450 200 450 225C450 250 450 275 450 300C450 325 450 350 450 375C450 400 450 425 450 450C450 475 450 500 450 525C450 550 450 575 450 600C450 625 450 650 450 675C450 700 450 725 450 750C450 775 450 800 450 825C450 850 450 875 450 887.5L450 900Z" fill="#393E46" stroke-linecap="round" stroke-linejoin="miter"></path></svg>